<?xml version="1.0" standalone="no"?><!DOCTYPE svg PUBLIC "-//W3C//DTD SVG 1.1//EN" "http://www.w3.org/Graphics/SVG/1.1/DTD/svg11.dtd"><svg t="1597765247370" class="icon" viewBox="0 0 1024 1024" version="1.1" xmlns="http://www.w3.org/2000/svg" p-id="21814" xmlns:xlink="http://www.w3.org/1999/xlink" width="200" height="200"><defs><style type="text/css"></style></defs><path d="M991.793376 543.993335h-42.231201a438.756592 438.756592 0 0 1-404.60904 404.395751v43.510935a32.099979 32.099979 0 0 1-64.199959 0v-43.510935A438.756592 438.756592 0 0 1 76.144137 543.993335H31.993335a31.993335 31.993335 0 0 1 0-63.98667h44.150802a438.308686 438.308686 0 0 1 405.248906-404.395751V32.099979a32.099979 32.099979 0 0 1 64.199958 0v43.510935A439.37513 439.37513 0 0 1 950.202041 480.006665h42.231202A30.777588 30.777588 0 0 1 1023.786711 512a31.673401 31.673401 0 0 1-31.993335 31.993335z m-165.938762-64.626536h59.507602A374.663278 374.663278 0 0 0 544.953135 138.957717v60.147469a32.099979 32.099979 0 0 1-64.199959 0V138.957717A374.876567 374.876567 0 0 0 140.130806 479.366799h57.801291a31.993335 31.993335 0 0 1 0 63.986669H140.130806a374.876567 374.876567 0 0 0 340.62237 340.409081V825.53468a32.099979 32.099979 0 0 1 64.199959 0v58.227869a373.554176 373.554176 0 0 0 340.409081-340.409081h-59.507602a31.993335 31.993335 0 0 1 0-63.986669z m-144.609873 66.119558a22.501979 22.501979 0 0 1 0 45.003958h-136.078317v112.18996a22.608623 22.608623 0 1 1-45.217247 0v-112.18996h-136.078317a22.501979 22.501979 0 0 1 0-45.003958h136.078317v-67.399292h-136.078317a22.501979 22.501979 0 0 1 0-45.003957h124.560717l0.639866-0.639867-95.126848-94.273693a23.461779 23.461779 0 0 1 0.639867-32.633201 23.845699 23.845699 0 0 1 32.84649-0.639867l95.126848 94.273693 95.126849-94.273693a23.845699 23.845699 0 0 1 32.84649 0.639867 23.312477 23.312477 0 0 1 0.853156 32.419912l-95.340138 94.486982 0.853156 0.639867h124.347428a22.501979 22.501979 0 0 1 0 45.003957h-136.078317v67.399292h136.078317z" p-id="21815" fill="#003dc6"></path></svg>