<?xml version="1.0" encoding="utf-8"?>
<svg t="1597766586333" class="icon" viewBox="0 0 1024 1024" version="1.1" p-id="15440" width="200" height="200" xmlns="http://www.w3.org/2000/svg">
  <path d="M 269.211 830.542 C 332.227 877.804 387.179 904.131 494.625 907.915 C 602.071 911.699 729.773 832.813 728.142 832.161 C 728.142 832.161 764.062 882.215 795.569 897.969 L 779.815 905.846 C 701.046 968.862 598.646 1000.369 496.246 1000.369 C 385.969 1000.369 283.569 960.985 196.923 897.969 C 228.431 882.215 247.201 862.05 270.831 830.542 L 269.211 830.542 Z M 882.215 630.154 C 937.354 630.154 976.738 677.415 976.738 724.677 C 976.738 771.938 929.477 819.2 882.215 819.2 C 834.954 819.2 787.692 771.938 787.692 724.677 C 787.692 677.415 834.954 630.154 882.215 630.154 Z M 94.523 630.154 C 149.662 630.154 189.046 677.415 189.046 724.677 C 189.046 771.938 141.785 819.2 94.523 819.2 C 47.262 819.2 0 771.938 0 724.677 C 0 677.415 47.262 630.154 94.523 630.154 L 94.523 630.154 Z M 685.292 102.4 C 850.708 173.292 960.985 338.708 960.985 535.631 L 960.985 551.385 C 937.354 543.508 913.723 535.631 882.215 535.631 L 878.252 535.631 C 878.252 393.846 781.659 238.426 661.886 183.512 C 685.516 152.004 685.292 141.785 685.292 102.4 L 685.292 102.4 Z M 299.323 94.523 C 299.323 133.908 308.596 144.128 325.97 175.636 C 201.335 230.55 107.984 385.969 107.984 527.754 L 102.4 527.754 C 70.892 527.754 47.262 535.631 23.631 543.508 L 23.631 527.754 C 15.754 338.708 133.908 173.292 299.323 94.523 L 299.323 94.523 Z M 488.369 0 C 543.508 0 582.892 47.262 582.892 94.523 C 582.892 141.785 535.631 189.046 488.369 189.046 C 441.108 189.046 393.846 141.785 393.846 94.523 C 393.846 47.262 441.108 0 488.369 0 Z" p-id="15441" fill="#003dc6"/>
</svg>