<?xml version="1.0" standalone="no"?><!DOCTYPE svg PUBLIC "-//W3C//DTD SVG 1.1//EN" "http://www.w3.org/Graphics/SVG/1.1/DTD/svg11.dtd"><svg t="1597765212491" class="icon" viewBox="0 0 1024 1024" version="1.1" xmlns="http://www.w3.org/2000/svg" p-id="21531" xmlns:xlink="http://www.w3.org/1999/xlink" width="200" height="200"><defs><style type="text/css"></style></defs><path d="M826.226574 63.99896c57.279069 0 95.99844 28.799532 95.99844 47.679225S883.505643 159.9974 826.226574 159.9974s-95.99844-28.799532-95.99844-47.99922S767.98752 63.99896 826.226574 63.99896m0-63.99896c-87.678575 0-159.9974 49.919189-159.9974 111.678185s71.038846 111.99818 159.9974 111.99818 159.9974-50.239184 159.9974-111.99818S914.225144 0 826.226574 0zM778.547349 447.99272c45.439262 0 79.038716 24.959594 79.038715 47.679225S823.98661 543.99116 778.547349 543.99116s-79.038716-25.279589-79.038716-47.679225S733.428082 447.99272 778.547349 447.99272m0-63.99896c-79.038716 0-143.037676 49.919189-143.037676 111.678185s63.99896 111.678185 143.037676 111.678186 143.037676-49.919189 143.037675-111.678186-63.99896-111.678185-143.037675-111.678185zM556.150963 223.99636c45.119267 0 79.038716 25.279589 79.038715 47.679225S601.270229 319.9948 556.150963 319.9948s-79.038716-25.279589-79.038716-47.99922S511.99168 223.99636 556.150963 223.99636m0-63.99896c-79.038716 0-143.037676 49.919189-143.037676 111.678185s63.99896 111.99818 143.037676 111.99818 143.037676-50.239184 143.037675-111.99818S635.189678 159.9974 556.150963 159.9974z" fill="#003dc6" p-id="21532"></path><path d="M588.790432 1023.98336c-36.479407 0-117.118097-25.919579-351.99428-150.077561l-4.799922-2.559958H30.079511a30.079511 30.079511 0 0 1-30.079511-30.079512v-301.755096a30.079511 30.079511 0 1 1 60.159022 0v271.35559h179.197088a29.759516 29.759516 0 0 1 14.079772 3.519943l11.519812 6.079901c260.475767 137.597764 313.914899 144.317655 324.474728 143.037676 51.839158-21.119657 312.314925-141.757696 347.194358-174.397166a86.398596 86.398596 0 0 0 26.879563-65.598934 47.99922 47.99922 0 0 0-22.719631-38.079381c-40.319345-26.879563-122.238014 25.919579-176.637129 60.479017-60.159022 38.079381-112.318175 66.558918-156.157463 27.199558-3.839938-3.519943-9.279849-8.319865-15.35975-14.399766a321.594774 321.594774 0 0 0-85.438612-68.478887h-118.398076a30.399506 30.399506 0 0 1 0-60.479017h119.99805c31.99948 0 68.158892 30.079511 125.757957 85.118616l14.079771 13.439782c4.159932 3.519943 12.799792 11.519813 83.198648-31.99948s169.277249-108.478237 241.916069-60.159022A109.758216 109.758216 0 0 1 1023.98336 718.068331 144.63765 144.63765 0 0 1 977.904109 831.98648c-49.919189 47.039236-335.35455 175.037156-368.314015 188.156943a51.199168 51.199168 0 0 1-20.799662 3.839937z" fill="#003dc6" p-id="21533"></path><path d="M692.468747 782.067291a29.759516 29.759516 0 0 1-18.239703-6.079901 31.99948 31.99948 0 0 1-6.079901-42.239313c6.079901-7.99987 24.319605-31.99948-30.079512-81.27868-28.159542-25.599584-113.918149-103.038326-310.394956-112.958164a1007.98362 1007.98362 0 0 0-287.99532 28.799532A30.079511 30.079511 0 0 1 21.759646 511.99168a1042.543059 1042.543059 0 0 1 309.114977-31.99948c217.596464 10.879823 315.514873 99.518383 347.514353 127.99792 85.758606 77.758736 55.3591 139.517733 38.079381 162.557359a29.759516 29.759516 0 0 1-23.99961 11.519812z" fill="#003dc6" p-id="21534"></path></svg>