<?xml version="1.0" encoding="utf-8"?>
<svg id="svg12" version="1.1" width="512pt" viewBox="0 0 512 512" height="512pt" xmlns="http://www.w3.org/2000/svg">
  <path style="fill: rgb(30, 153, 244); fill-opacity: 1;" id="path10" d="M 259.024 33.215 C 134.78 33.215 34.025 134.053 34.025 258.402 C 34.025 382.751 134.78 483.59 259.024 483.59 C 383.269 483.59 484.025 382.751 484.025 258.402 C 484.025 134.053 383.269 33.215 259.024 33.215 Z M 361.757 208.792 C 361.857 211.008 361.904 213.235 361.904 215.472 C 361.904 283.771 309.961 362.529 214.966 362.532 L 214.97 362.532 L 214.966 362.532 C 185.801 362.532 158.661 353.976 135.806 339.316 C 139.848 339.793 143.96 340.03 148.125 340.03 C 172.322 340.03 194.591 331.77 212.268 317.905 C 189.66 317.486 170.599 302.542 164.021 282.005 C 167.169 282.609 170.407 282.939 173.726 282.939 C 178.44 282.939 183.007 282.304 187.346 281.119 C 163.716 276.383 145.913 255.482 145.913 230.453 C 145.913 230.218 145.913 230.009 145.921 229.792 C 152.88 233.666 160.838 235.995 169.311 236.257 C 155.444 226.996 146.33 211.166 146.33 193.233 C 146.33 183.764 148.887 174.892 153.322 167.252 C 178.79 198.528 216.851 219.097 259.774 221.258 C 258.888 217.473 258.432 213.528 258.432 209.473 C 258.432 180.94 281.561 157.79 310.08 157.79 C 324.937 157.79 338.353 164.075 347.777 174.121 C 359.543 171.799 370.591 167.498 380.572 161.577 C 376.709 173.641 368.525 183.764 357.86 190.165 C 368.308 188.914 378.264 186.142 387.517 182.024 C 380.606 192.392 371.841 201.498 361.757 208.792 Z M 361.757 208.792"/>
</svg>