<?xml version="1.0" standalone="no"?><!DOCTYPE svg PUBLIC "-//W3C//DTD SVG 1.1//EN" "http://www.w3.org/Graphics/SVG/1.1/DTD/svg11.dtd"><svg t="1595340104039" class="icon" viewBox="0 0 1536 1024" version="1.1" xmlns="http://www.w3.org/2000/svg" p-id="2314" xmlns:xlink="http://www.w3.org/1999/xlink" width="300" height="200"><defs><style type="text/css"></style></defs><path d="M0 0h1535.488v1024H0" fill="#FFFFFF" p-id="2315"></path><path d="M0 80.576h1535.488V0H0m0 157.12h1535.488v80.64H0M0 314.24h1535.488V394.88H0m0 76.544h1535.488v80.576H0M0 629.12h1535.488v80H0m0 77.184h1535.488v80.576H0M0 1024h1535.488v-80.576H0" fill="#E50012" p-id="2316"></path><path d="M0 552h665.216V0H0" fill="#1E2380" p-id="2317"></path><path d="M54.848 66.368l16.448 13.056L65.28 58.432l16.448-12.48H60.8L54.848 25.472l-6.592 20.48H27.392l17.024 12.48-6.592 20.992 17.024-13.056z m110.72 0l17.024 13.056-6.528-20.992 16.96-12.48h-20.8l-6.592-20.48-6.08 20.48h-20.8l16.448 12.48-6.016 20.992 16.448-13.056z m111.36 0l17.024 13.056L287.36 58.432l17.024-12.48H283.52l-6.592-20.48-6.592 20.48H249.6l16.96 12.48-6.528 20.992 16.96-13.056z m111.36 0l16.448 13.056-6.08-20.992 16.448-12.48h-20.8l-6.016-20.48-6.592 20.48h-20.864l17.024 12.48-6.592 20.992 17.024-13.056z m110.72 0l17.024 13.056L509.44 58.432l17.024-12.48H505.6l-6.592-20.48-6.528 20.48h-20.288l16.448 12.48-6.08 20.992 16.448-13.056z m111.36 0l16.96 13.056L620.8 58.432l16.448-12.48H616.96l-6.592-20.48-6.592 20.48h-20.864l17.024 12.48-6.592 20.992 17.024-13.056z m-500.16 55.616l17.024 12.48-6.592-20.48 17.024-12.416h-20.864l-6.592-20.48-6.592 20.48h-20.8l16.96 12.48-6.528 20.416 16.96-12.48z m111.36 0l16.448 12.48-6.016-20.48 16.448-12.416h-20.288l-6.592-20.48-6.592 20.48h-20.864l17.024 12.48-6.592 20.416 17.024-12.48z m110.72 0l17.024 12.48-6.592-20.48 17.024-12.416h-20.864l-6.528-20.48-6.08 20.48h-20.8l16.448 12.48-6.016 20.416 16.448-12.48z m111.36 0l17.024 12.48-6.592-20.48 16.96-12.416h-20.8l-6.592-20.48-6.592 20.48h-20.8l16.96 12.48-6.592 20.416 17.024-12.48z m111.36 0l16.384 12.48-6.528-20.48 16.96-12.416h-20.8l-6.08-20.48-6.528 20.48h-20.864l17.024 12.48-6.592 20.416 16.96-12.48z m-500.16 55.616l16.448 12.48-6.016-20.48 16.448-12.48H60.8l-6.016-20.416-6.592 20.48H27.392l17.024 12.416-6.592 20.48 17.024-12.48z m110.72 0l17.024 12.48-6.528-20.48 16.96-12.48h-20.8l-6.592-20.416-6.08 20.48h-20.8l16.448 12.416-6.016 20.48 16.448-12.48z m111.36 0l17.024 12.48-6.592-20.48 17.024-12.48H283.52l-6.592-20.416-6.592 20.48H249.6l16.96 12.416-6.528 20.48 16.96-12.48z m111.36 0l16.448 12.48-6.08-20.48 16.448-12.48h-20.8l-6.016-20.416-6.592 20.48h-20.864l17.024 12.416-6.592 20.48 17.024-12.48z m110.72 0l17.024 12.48-6.592-20.48 17.024-12.48H505.6l-6.592-20.416-6.528 20.48h-20.288l16.448 12.416-6.08 20.48 16.448-12.48z m111.36 0l16.96 12.48-6.528-20.48 16.448-12.48H616.96l-6.592-20.416-6.592 20.48h-20.864l17.024 12.416-6.592 20.48 17.024-12.48z m-500.16 55.552l17.024 12.48-6.592-20.416 17.024-12.48h-20.864l-6.592-20.416-6.592 20.48h-20.8l16.96 12.416-6.528 20.48 16.96-12.544z m111.36 0l16.448 12.48-6.016-20.416 16.448-12.48h-20.288l-6.592-20.416-6.592 20.48h-20.864l17.024 12.416-6.592 20.48 17.024-12.544z m110.72 0l17.024 12.48-6.592-20.416 17.024-12.48h-20.864l-6.528-20.416-6.08 20.48h-20.8l16.448 12.416-6.016 20.48 16.448-12.544z m111.36 0l17.024 12.48-6.592-20.416 16.96-12.48h-20.8l-6.592-20.416-6.592 20.48h-20.8l16.96 12.416-6.592 20.48 17.024-12.544z m111.36 0l16.384 12.48-6.528-20.416 16.96-12.48h-20.8l-6.08-20.416-6.528 20.48h-20.864l17.024 12.416-6.592 20.48 16.96-12.544z m-500.16 55.616l16.448 12.48-6.016-20.48 16.448-12.416H60.8l-6.016-20.48-6.592 20.48H27.392l17.024 12.48-6.592 20.416 17.024-12.48z m110.72 0l17.024 12.48-6.528-20.48 16.96-12.416h-20.8l-6.592-20.48-6.08 20.48h-20.8l16.448 12.48-6.016 20.416 16.448-12.48z m111.36 0l17.024 12.48-6.592-20.48 17.024-12.416H283.52l-6.592-20.48-6.592 20.48H249.6l16.96 12.48-6.528 20.416 16.96-12.48z m111.36 0l16.448 12.48-6.08-20.48 16.448-12.416h-20.8l-6.016-20.48-6.592 20.48h-20.864l17.024 12.48-6.592 20.416 17.024-12.48z m110.72 0l17.024 12.48-6.592-20.48 17.024-12.416H505.6l-6.592-20.48-6.528 20.48h-20.288l16.448 12.48-6.08 20.416 16.448-12.48z m111.36 0l16.96 12.48-6.528-20.48 16.448-12.416H616.96l-6.592-20.48-6.592 20.48h-20.864l17.024 12.48-6.592 20.416 17.024-12.48z m-500.16 55.616l17.024 12.48-6.592-20.48 17.024-12.48h-20.864l-6.592-20.416-6.592 20.48h-20.8l16.96 12.48-6.528 20.416 16.96-12.48z m111.36 0l16.448 12.48-6.016-20.48 16.448-12.48h-20.288l-6.592-20.416-6.592 20.48h-20.864l17.024 12.48-6.592 20.416 17.024-12.48z m110.72 0l17.024 12.48-6.592-20.48 17.024-12.48h-20.864l-6.528-20.416-6.08 20.48h-20.8l16.448 12.48-6.016 20.416 16.448-12.48z m111.36 0l17.024 12.48-6.592-20.48 16.96-12.48h-20.8l-6.592-20.416-6.592 20.48h-20.8l16.96 12.48-6.592 20.416 17.024-12.48z m111.36 0l16.384 12.48-6.528-20.48 16.96-12.48h-20.8l-6.08-20.416-6.528 20.48h-20.864l17.024 12.48-6.592 20.416 16.96-12.48z m-500.16 55.552l16.448 12.48-6.016-20.416 16.448-13.056H60.8l-6.016-19.84-6.592 19.84H27.392l17.024 13.056-6.592 20.48 17.024-12.544z m110.72 0l17.024 12.48-6.528-20.416 16.96-13.056h-20.8l-6.592-19.84-6.08 19.84h-20.8l16.448 13.056-6.016 20.48 16.448-12.544z m111.36 0l17.024 12.48-6.592-20.416 17.024-13.056H283.52l-6.592-19.84-6.592 19.84H249.6l16.96 13.056-6.528 20.48 16.96-12.544z m111.36 0l16.448 12.48-6.08-20.416 16.448-13.056h-20.8l-6.016-19.84-6.592 19.84h-20.864l17.024 13.056-6.592 20.48 17.024-12.544z m110.72 0l17.024 12.48-6.592-20.416 17.024-13.056H505.6l-6.592-19.84-6.528 19.84h-20.288l16.448 13.056-6.08 20.48 16.448-12.544z m111.36 0l16.96 12.48-6.528-20.416 16.448-13.056H616.96l-6.592-19.84-6.592 19.84h-20.864l17.024 13.056-6.592 20.48 17.024-12.544z m-500.16 55.616l17.024 12.48-6.592-20.48 17.024-12.992h-20.864l-6.592-20.48-6.592 20.48h-20.8l16.96 13.056-6.528 20.416 16.96-12.48z m111.36 0l16.448 12.48-6.016-20.48 16.448-12.992h-20.288l-6.592-20.48-6.592 20.48h-20.864l17.024 13.056-6.592 20.416 17.024-12.48z m110.72 0l17.024 12.48-6.592-20.48 17.024-12.992h-20.864l-6.528-20.48-6.08 20.48h-20.8l16.448 13.056-6.016 20.416 16.448-12.48z m111.36 0l17.024 12.48-6.592-20.48 16.96-12.992h-20.8l-6.592-20.48-6.592 20.48h-20.8l16.96 13.056-6.592 20.416 17.024-12.48z m111.36 0l16.384 12.48-6.528-20.48 16.96-12.992h-20.8l-6.08-20.48-6.528 20.48h-20.864l17.024 13.056-6.592 20.416 16.96-12.48z m-500.16 55.04l16.448 13.056-6.016-20.48 16.448-12.992H60.8l-6.016-20.48-6.592 20.48H27.392l17.024 13.056-6.592 20.416 17.024-13.056z m110.72 0l17.024 13.056-6.528-20.48 16.96-12.992h-20.8l-6.592-20.48-6.08 20.48h-20.8l16.448 13.056-6.016 20.416 16.448-13.056z m111.36 0l17.024 13.056-6.592-20.48 17.024-12.992H283.52l-6.592-20.48-6.592 20.48H249.6l16.96 13.056-6.528 20.416 16.96-13.056z m111.36 0l16.448 13.056-6.08-20.48 16.448-12.992h-20.8l-6.016-20.48-6.592 20.48h-20.864l17.024 13.056-6.592 20.416 17.024-13.056z m110.72 0l17.024 13.056-6.592-20.48 17.024-12.992H505.6l-6.592-20.48-6.528 20.48h-20.288l16.448 13.056-6.08 20.416 16.448-13.056z m111.36 0l16.96 13.056-6.528-20.48 16.448-12.992H616.96l-6.592-20.48-6.592 20.48h-20.864l17.024 13.056-6.592 20.416 17.024-13.056z" fill="#FFFFFF" p-id="2318"></path></svg>